<svg version="1.1" id="Layer_1" xmlns="http://www.w3.org/2000/svg" xmlns:xlink="http://www.w3.org/1999/xlink" x="0px" y="0px"
	 width="100%" viewBox="0 0 1000 1000" enable-background="new 0 0 1000 1000" xml:space="preserve">
<path fill="#000000" opacity="1.000000" stroke="none" 
	d="
M1.000000,806.000000 
	C1.000000,611.974182 1.000000,417.948334 1.468657,223.461243 
	C195.179230,223.000000 388.421143,223.000000 582.043030,223.000000 
	C582.043030,328.513916 582.043030,433.572388 582.043030,539.181763 
	C714.261719,539.181763 846.101135,539.181763 978.000061,539.181763 
	C978.000061,546.065308 977.967529,552.397217 978.031494,558.728210 
	C978.042358,559.800964 978.416931,561.785522 978.709106,561.801636 
	C982.678040,562.021606 980.913208,565.039429 980.916748,566.669373 
	C981.019653,613.993591 981.002014,661.318176 980.990173,708.642639 
	C980.989807,710.066345 980.843323,711.490112 980.744568,713.284912 
	C974.578674,713.284912 968.835266,713.284912 962.713257,713.284912 
	C962.713257,740.421021 962.713257,767.158325 962.713257,794.262573 
	C835.592957,794.262573 708.868347,794.262573 581.749023,794.262573 
	C581.749023,798.380554 581.749023,802.125061 581.749023,806.000000 
	C387.902039,806.000000 194.451019,806.000000 1.000000,806.000000 
z"/>
<path fill="#FFFFFF" opacity="1.000000" stroke="none" 
	d="
M1.000000,806.468628 
	C194.451019,806.000000 387.902039,806.000000 581.749023,806.000000 
	C581.749023,802.125061 581.749023,798.380554 581.749023,794.262573 
	C708.868347,794.262573 835.592957,794.262573 962.713257,794.262573 
	C962.713257,767.158325 962.713257,740.421021 962.713257,713.284912 
	C968.835266,713.284912 974.578674,713.284912 980.744568,713.284912 
	C980.843323,711.490112 980.989807,710.066345 980.990173,708.642639 
	C981.002014,661.318176 981.019653,613.993591 980.916748,566.669373 
	C980.913208,565.039429 982.678040,562.021606 978.709106,561.801636 
	C978.416931,561.785522 978.042358,559.800964 978.031494,558.728210 
	C977.967529,552.397217 978.000061,546.065308 978.000061,539.181763 
	C846.101135,539.181763 714.261719,539.181763 582.043030,539.181763 
	C582.043030,433.572388 582.043030,328.513916 582.043030,223.000000 
	C388.421143,223.000000 195.179230,223.000000 1.468657,223.000000 
	C1.000000,149.033798 1.000000,75.067596 1.000000,1.000000 
	C246.020889,1.000000 491.041779,1.000000 736.531372,1.444528 
	C737.000000,87.124840 737.000000,172.360626 737.000000,258.157745 
	C687.431946,258.157745 638.250183,258.157745 589.336914,258.157745 
	C589.336914,342.773865 589.336914,426.827881 589.336914,510.701080 
	C720.051025,510.701080 850.428040,510.701080 981.188782,510.701080 
	C981.188782,459.341095 981.188782,408.279053 981.188782,357.000000 
	C988.047791,357.000000 994.523926,357.000000 1001.000000,357.000000 
	C1001.000000,571.615601 1001.000000,786.231140 1001.000000,1000.923340 
	C667.666687,1000.923340 334.333344,1000.923340 1.000000,1000.923340 
	C1.000000,936.239990 1.000000,871.588623 1.000000,806.468628 
z"/>
<path fill="#000000" opacity="1.000000" stroke="none" 
	d="
M1001.000000,356.531342 
	C994.523926,357.000000 988.047791,357.000000 981.188782,357.000000 
	C981.188782,408.279053 981.188782,459.341095 981.188782,510.701080 
	C850.428040,510.701080 720.051025,510.701080 589.336914,510.701080 
	C589.336914,426.827881 589.336914,342.773865 589.336914,258.157745 
	C638.250183,258.157745 687.431946,258.157745 737.000000,258.157745 
	C737.000000,172.360626 737.000000,87.124840 737.000000,1.444528 
	C824.937866,1.000000 912.875732,1.000000 1001.000000,1.000000 
	C1001.000000,119.354164 1001.000000,237.708420 1001.000000,356.531342 
z"/>
</svg>